<?xml version="1.0" standalone="no"?><!DOCTYPE svg PUBLIC "-//W3C//DTD SVG 1.1//EN" "http://www.w3.org/Graphics/SVG/1.1/DTD/svg11.dtd"><svg t="1586951043959" class="icon" viewBox="0 0 1024 1024" version="1.1" xmlns="http://www.w3.org/2000/svg" p-id="10251" xmlns:xlink="http://www.w3.org/1999/xlink" width="200" height="200"><defs><style type="text/css"></style></defs><path d="M989.692 873.73c-44.8-61.216-272.286-35.808-307.005-105.792-68.928-138.719-40.768-112.959 4.095-147.294 42.112-32.256 40.128-117.28 65.888-147.455 26.144-30.624 38.208-118.463 28.352-151.519-13.024-43.871-33.024-20-36.064-53.12-6.528-71.327 11.456-130.078-28.704-164.766C677.471 70.248 628.863 0.97 549.792 0.01c-27.552-0.32-58.848 7.872-94.656 28.448C284.45 10.217 285.57 197.223 279.042 268.55c-3.04 33.12-23.04 9.248-36.064 53.12-9.824 33.055 2.208 120.894 28.352 151.518 25.76 30.208 23.776 115.199 65.888 147.455 44.895 34.367 73.023 8.575 4.095 147.358-34.72 69.952-262.205 44.48-307.037 105.727C0.004 920.513 0.036 1024 0.004 1024h1023.992s0-103.487-34.304-150.27z" fill="#797979" p-id="10252"></path></svg>